<svg width="196" height="53" viewBox="0 0 196 53" fill="none" xmlns="http://www.w3.org/2000/svg">
<path d="M35 6V29.5752H22.9277L22.375 30.0303L11.7354 38.7686V29.3789H2V6H35Z" stroke="white" stroke-width="4"/>
<path d="M178.108 31.8101C176.066 31.8101 174.347 31.5127 172.951 30.9181C171.58 30.3234 170.52 29.4961 169.77 28.4361C169.021 27.3761 168.594 26.1739 168.491 24.8294L173.571 24.5968C173.752 25.6826 174.204 26.5229 174.928 27.1175C175.652 27.7122 176.725 28.0095 178.147 28.0095C179.311 28.0095 180.216 27.8285 180.862 27.4666C181.534 27.0788 181.87 26.4841 181.87 25.6826C181.87 25.2173 181.754 24.8294 181.521 24.5192C181.289 24.2089 180.849 23.9375 180.203 23.7048C179.556 23.4721 178.6 23.2394 177.333 23.0067C175.213 22.6448 173.545 22.2053 172.33 21.6882C171.115 21.1452 170.249 20.473 169.732 19.6716C169.24 18.8701 168.995 17.8747 168.995 16.6854C168.995 14.7463 169.732 13.1822 171.205 11.9929C172.705 10.7777 174.89 10.1702 177.759 10.1702C179.621 10.1702 181.185 10.4804 182.452 11.1009C183.719 11.6956 184.701 12.5229 185.399 13.5829C186.123 14.6171 186.576 15.8064 186.757 17.1508L181.754 17.3835C181.625 16.6854 181.392 16.0778 181.056 15.5607C180.72 15.0437 180.267 14.6559 179.698 14.3973C179.13 14.1129 178.457 13.9707 177.682 13.9707C176.518 13.9707 175.639 14.2034 175.045 14.6688C174.45 15.1342 174.153 15.7547 174.153 16.5303C174.153 17.0732 174.282 17.5257 174.541 17.8876C174.825 18.2496 175.277 18.5469 175.898 18.7796C176.518 18.9864 177.346 19.1803 178.38 19.3613C180.552 19.6974 182.258 20.1369 183.499 20.6799C184.766 21.1969 185.658 21.8691 186.175 22.6965C186.718 23.498 186.989 24.4675 186.989 25.6051C186.989 26.9236 186.614 28.0483 185.865 28.979C185.141 29.9098 184.107 30.6208 182.762 31.112C181.444 31.5774 179.892 31.8101 178.108 31.8101Z" fill="white"/>
<path d="M156.541 31.3445V10.6354H161.194L161.388 16.375L160.962 16.2974C161.272 14.3067 161.854 12.8718 162.707 11.9927C163.586 11.0878 164.775 10.6354 166.275 10.6354H168.175V14.9013H166.236C165.176 14.9013 164.297 15.0564 163.599 15.3667C162.901 15.6769 162.371 16.1682 162.009 16.8404C161.673 17.4867 161.505 18.3399 161.505 19.3999V31.3445H156.541Z" fill="white"/>
<path d="M144.128 31.8101C142.06 31.8101 140.263 31.3705 138.738 30.4915C137.212 29.5866 136.036 28.3197 135.209 26.6909C134.381 25.0621 133.968 23.1619 133.968 20.9901C133.968 18.8184 134.381 16.931 135.209 15.3281C136.036 13.6993 137.2 12.4324 138.699 11.5275C140.224 10.6226 141.995 10.1702 144.012 10.1702C145.977 10.1702 147.696 10.6097 149.17 11.4887C150.67 12.3678 151.82 13.6346 152.622 15.2893C153.423 16.9439 153.824 18.9347 153.824 21.2616V22.3862H139.126C139.229 24.196 139.72 25.5663 140.599 26.497C141.504 27.4019 142.694 27.8544 144.167 27.8544C145.279 27.8544 146.197 27.6088 146.921 27.1175C147.67 26.6005 148.188 25.8895 148.472 24.9846L153.552 25.2948C152.983 27.3114 151.859 28.9015 150.178 30.0649C148.524 31.2283 146.507 31.8101 144.128 31.8101ZM139.126 19.0511H148.705C148.601 17.3705 148.123 16.1295 147.27 15.3281C146.417 14.5007 145.331 14.0871 144.012 14.0871C142.694 14.0871 141.595 14.5137 140.716 15.3668C139.863 16.22 139.332 17.4481 139.126 19.0511Z" fill="white"/>
<path d="M119.994 31.8101C118.236 31.8101 116.711 31.3705 115.418 30.4915C114.151 29.6125 113.168 28.3585 112.47 26.7297C111.772 25.1009 111.423 23.1877 111.423 20.9901C111.423 18.7925 111.772 16.8793 112.47 15.2505C113.168 13.6217 114.164 12.3678 115.457 11.4887C116.749 10.6097 118.262 10.1702 119.994 10.1702C121.442 10.1702 122.709 10.4675 123.795 11.0621C124.906 11.6568 125.747 12.497 126.315 13.5829V3.81006H131.279V31.3447H126.548L126.432 28.281C125.863 29.3927 125.01 30.2588 123.872 30.8793C122.735 31.4998 121.442 31.8101 119.994 31.8101ZM121.506 27.7768C122.541 27.7768 123.407 27.5183 124.105 27.0012C124.829 26.4841 125.372 25.7214 125.734 24.7131C126.121 23.6789 126.315 22.4379 126.315 20.9901C126.315 19.5164 126.121 18.2754 125.734 17.2671C125.372 16.2588 124.829 15.4961 124.105 14.979C123.407 14.462 122.541 14.2034 121.506 14.2034C120.007 14.2034 118.805 14.811 117.9 16.0261C117.021 17.2154 116.581 18.8701 116.581 20.9901C116.581 23.0584 117.021 24.7131 117.9 25.9541C118.805 27.1692 120.007 27.7768 121.506 27.7768Z" fill="white"/>
<path d="M97.6069 31.8101C95.4351 31.8101 93.69 31.3188 92.3714 30.3364C91.0528 29.3281 90.3936 27.9319 90.3936 26.148C90.3936 24.3641 90.9494 22.968 92.0611 21.9596C93.1729 20.9513 94.8663 20.2274 97.1415 19.7879L104.006 18.4306C104.006 16.9569 103.67 15.8581 102.997 15.1342C102.325 14.3844 101.33 14.0095 100.011 14.0095C98.822 14.0095 97.8783 14.2939 97.1803 14.8627C96.5081 15.4056 96.0427 16.1942 95.7841 17.2283L90.7426 16.9957C91.1563 14.7981 92.1646 13.1175 93.7675 11.9541C95.3705 10.7648 97.4517 10.1702 100.011 10.1702C102.959 10.1702 105.182 10.9199 106.682 12.4195C108.207 13.8932 108.97 16.0132 108.97 18.7796V26.3031C108.97 26.8461 109.06 27.221 109.241 27.4278C109.448 27.6346 109.745 27.738 110.133 27.738H110.792V31.3447C110.637 31.3964 110.379 31.4352 110.017 31.461C109.681 31.4869 109.332 31.4998 108.97 31.4998C108.117 31.4998 107.354 31.3705 106.682 31.112C106.009 30.8276 105.492 30.3493 105.13 29.6771C104.768 28.979 104.587 28.0354 104.587 26.8461L105.014 27.1563C104.807 28.0612 104.355 28.8756 103.657 29.5995C102.985 30.2976 102.131 30.8405 101.097 31.2283C100.063 31.6161 98.8996 31.8101 97.6069 31.8101ZM98.6152 28.2034C99.7269 28.2034 100.683 27.9836 101.485 27.5441C102.286 27.1046 102.907 26.497 103.346 25.7214C103.786 24.9458 104.006 24.028 104.006 22.968V21.8045L98.6539 22.8904C97.5422 23.1231 96.7407 23.4721 96.2495 23.9375C95.7841 24.377 95.5514 24.9587 95.5514 25.6826C95.5514 26.4841 95.81 27.1046 96.3271 27.5441C96.87 27.9836 97.6327 28.2034 98.6152 28.2034Z" fill="white"/>
<path d="M78.8809 31.8101C76.8126 31.8101 75.0157 31.3705 73.4903 30.4915C71.9649 29.5866 70.7885 28.3197 69.9612 26.6909C69.1339 25.0621 68.7202 23.1619 68.7202 20.9901C68.7202 18.8184 69.1339 16.931 69.9612 15.3281C70.7885 13.6993 71.952 12.4324 73.4515 11.5275C74.9769 10.6226 76.7479 10.1702 78.7645 10.1702C80.7294 10.1702 82.4487 10.6097 83.9224 11.4887C85.422 12.3678 86.5725 13.6346 87.374 15.2893C88.1754 16.9439 88.5762 18.9347 88.5762 21.2616V22.3862H73.8781C73.9815 24.196 74.4728 25.5663 75.3518 26.497C76.2567 27.4019 77.446 27.8544 78.9197 27.8544C80.0314 27.8544 80.9492 27.6088 81.6731 27.1175C82.4229 26.6005 82.94 25.8895 83.2244 24.9846L88.3047 25.2948C87.7359 27.3114 86.6113 28.9015 84.9307 30.0649C83.2761 31.2283 81.2595 31.8101 78.8809 31.8101ZM73.8781 19.0511H83.4571C83.3536 17.3705 82.8753 16.1295 82.0222 15.3281C81.169 14.5007 80.0831 14.0871 78.7645 14.0871C77.446 14.0871 76.3472 14.5137 75.4681 15.3668C74.615 16.22 74.0849 17.4481 73.8781 19.0511Z" fill="white"/>
<path d="M50 31.3447V3.81006H55.0416V29.7934L52.2881 26.9624H68.1108V31.3447H50Z" fill="white"/>
<path d="M191.411 11.1285C190.868 11.1285 190.358 11.0285 189.88 10.8287C189.402 10.6217 188.981 10.3362 188.617 9.97224C188.253 9.60824 187.967 9.18714 187.76 8.70894C187.56 8.23074 187.46 7.72043 187.46 7.178C187.46 6.62843 187.56 6.11812 187.76 5.64706C187.967 5.16886 188.253 4.74776 188.617 4.38376C188.981 4.01976 189.402 3.73784 189.88 3.538C190.358 3.33102 190.868 3.22753 191.411 3.22753C191.96 3.22753 192.471 3.33102 192.942 3.538C193.42 3.73784 193.841 4.01976 194.205 4.38376C194.569 4.74776 194.851 5.16886 195.051 5.64706C195.258 6.11812 195.361 6.62843 195.361 7.178C195.361 7.72043 195.258 8.23074 195.051 8.70894C194.851 9.18714 194.569 9.60824 194.205 9.97224C193.841 10.3362 193.42 10.6217 192.942 10.8287C192.471 11.0285 191.96 11.1285 191.411 11.1285ZM191.411 10.1864C191.818 10.1864 192.199 10.1078 192.556 9.95082C192.92 9.7938 193.238 9.57969 193.509 9.30847C193.788 9.03012 194.005 8.70894 194.162 8.34494C194.319 7.98094 194.398 7.59196 194.398 7.178C194.398 6.7569 194.319 6.36435 194.162 6.00035C194.005 5.63635 193.788 5.31874 193.509 5.04753C193.238 4.77631 192.92 4.5622 192.556 4.40518C192.199 4.24816 191.818 4.16965 191.411 4.16965C191.004 4.16965 190.619 4.24816 190.255 4.40518C189.898 4.5622 189.58 4.77631 189.302 5.04753C189.031 5.31874 188.816 5.63635 188.659 6.00035C188.502 6.36435 188.424 6.7569 188.424 7.178C188.424 7.59196 188.502 7.98094 188.659 8.34494C188.816 8.70894 189.031 9.03012 189.302 9.30847C189.58 9.57969 189.898 9.7938 190.255 9.95082C190.619 10.1078 191.004 10.1864 191.411 10.1864ZM191.454 9.37271C191.04 9.37271 190.672 9.27992 190.351 9.09435C190.03 8.90878 189.776 8.65184 189.591 8.32353C189.412 7.98808 189.323 7.60267 189.323 7.16729C189.323 6.73906 189.412 6.36078 189.591 6.03247C189.776 5.70416 190.03 5.44721 190.351 5.26165C190.672 5.07608 191.04 4.98329 191.454 4.98329C191.818 4.98329 192.142 5.05467 192.428 5.19741C192.713 5.34016 192.945 5.54 193.124 5.79694C193.302 6.04674 193.406 6.3358 193.434 6.66412L192.385 6.71765C192.349 6.46071 192.246 6.25372 192.075 6.09671C191.91 5.93969 191.703 5.86118 191.454 5.86118C191.24 5.86118 191.05 5.91471 190.886 6.02176C190.722 6.12882 190.594 6.28227 190.501 6.48212C190.415 6.67482 190.372 6.90322 190.372 7.16729C190.372 7.43851 190.415 7.67404 190.501 7.87388C190.594 8.06659 190.722 8.22004 190.886 8.33423C191.05 8.44129 191.24 8.49482 191.454 8.49482C191.625 8.49482 191.778 8.45914 191.914 8.38776C192.057 8.30925 192.171 8.2022 192.257 8.06659C192.342 7.93098 192.396 7.76682 192.417 7.57412L193.466 7.62765C193.438 7.9631 193.331 8.26286 193.145 8.52694C192.967 8.79102 192.731 8.998 192.439 9.14788C192.146 9.29776 191.818 9.37271 191.454 9.37271Z" fill="white"/>
<path d="M168.989 50C168.607 50 168.306 49.9067 168.086 49.7202C167.865 49.5252 167.755 49.2242 167.755 48.8172V40.9698H168.594V48.7536C168.594 48.9147 168.637 49.0376 168.721 49.1224C168.806 49.2072 168.933 49.2496 169.103 49.2496H169.637V50H168.989Z" fill="white"/>
<path d="M165.822 50C165.44 50 165.139 49.9067 164.919 49.7202C164.698 49.5252 164.588 49.2242 164.588 48.8172V40.9698H165.427V48.7536C165.427 48.9147 165.47 49.0376 165.555 49.1224C165.639 49.2072 165.766 49.2496 165.936 49.2496H166.47V50H165.822Z" fill="white"/>
<path d="M160.127 50.1526C159.483 50.1526 158.936 50.0042 158.486 49.7075C158.037 49.4022 157.689 48.9868 157.444 48.4611C157.206 47.9269 157.087 47.3164 157.087 46.6296C157.087 45.9428 157.206 45.3365 157.444 44.8108C157.681 44.2767 158.02 43.8612 158.461 43.5644C158.91 43.2592 159.449 43.1066 160.076 43.1066C160.678 43.1066 161.2 43.2507 161.641 43.539C162.082 43.8273 162.416 44.2343 162.645 44.76C162.883 45.2857 163.002 45.9004 163.002 46.6042V46.8712H157.965C157.999 47.6683 158.207 48.283 158.588 48.7154C158.97 49.1394 159.483 49.3514 160.127 49.3514C160.619 49.3514 161.022 49.2327 161.335 48.9952C161.649 48.7578 161.865 48.4441 161.984 48.0541L162.887 48.1177C162.717 48.7112 162.391 49.1987 161.908 49.5803C161.424 49.9618 160.831 50.1526 160.127 50.1526ZM157.965 46.1209H162.086C162.043 45.4001 161.844 44.8532 161.488 44.4802C161.132 44.0986 160.661 43.9078 160.076 43.9078C159.491 43.9078 159.012 44.0986 158.639 44.4802C158.266 44.8617 158.041 45.4086 157.965 46.1209Z" fill="white"/>
<path d="M149.021 50L146.871 43.2592H147.787L149.529 49.1224L151.246 43.2592H152.137L153.854 49.1224L155.609 43.2592H156.524L154.375 50H153.332L151.691 44.531L150.063 50H149.021Z" fill="white"/>
<path d="M142.911 52.0604C142.436 52.0604 142.003 51.9756 141.613 51.806C141.232 51.6449 140.918 51.416 140.672 51.1192C140.426 50.8225 140.269 50.4791 140.202 50.089L141.079 50.0382C141.156 50.4028 141.342 50.6953 141.639 50.9157C141.936 51.1447 142.36 51.2591 142.911 51.2591C143.564 51.2591 144.064 51.1065 144.411 50.8013C144.768 50.496 144.946 50.0509 144.946 49.4658V48.3084C144.776 48.7154 144.505 49.0419 144.132 49.2878C143.759 49.5337 143.33 49.6566 142.847 49.6566C142.279 49.6566 141.774 49.5209 141.334 49.2496C140.901 48.9698 140.562 48.584 140.316 48.0922C140.079 47.6004 139.96 47.0281 139.96 46.3752C139.96 45.7223 140.079 45.1542 140.316 44.6709C140.562 44.1792 140.897 43.7976 141.321 43.5263C141.753 43.2465 142.249 43.1066 142.809 43.1066C143.326 43.1066 143.776 43.238 144.157 43.5008C144.547 43.7552 144.823 44.0944 144.984 44.5183V43.2592H145.785V49.4658C145.785 50 145.671 50.4621 145.442 50.8521C145.213 51.2422 144.882 51.5389 144.45 51.7424C144.026 51.9544 143.513 52.0604 142.911 52.0604ZM142.885 48.8553C143.504 48.8553 144 48.6349 144.373 48.194C144.755 47.7446 144.946 47.1383 144.946 46.3752C144.954 45.8834 144.874 45.4553 144.704 45.0907C144.534 44.7176 144.293 44.4293 143.979 44.2258C143.665 44.0138 143.301 43.9078 142.885 43.9078C142.249 43.9078 141.749 44.1325 141.384 44.5819C141.02 45.0228 140.838 45.6206 140.838 46.3752C140.838 47.1383 141.02 47.7446 141.384 48.194C141.758 48.6349 142.258 48.8553 142.885 48.8553Z" fill="white"/>
<path d="M135.305 50.1526C134.627 50.1526 134.084 49.9915 133.677 49.6693C133.27 49.3386 133.066 48.8935 133.066 48.3339C133.066 47.7743 133.244 47.3334 133.601 47.0112C133.957 46.689 134.478 46.4643 135.165 46.3371L137.658 45.8665C137.658 45.1966 137.514 44.7049 137.225 44.3911C136.937 44.0689 136.5 43.9078 135.915 43.9078C135.398 43.9078 134.987 44.0308 134.682 44.2767C134.376 44.5226 134.173 44.8702 134.071 45.3196L133.181 45.2433C133.308 44.5904 133.605 44.0732 134.071 43.6916C134.546 43.3016 135.161 43.1066 135.915 43.1066C136.755 43.1066 137.395 43.344 137.836 43.8188C138.277 44.2936 138.497 44.972 138.497 45.8538V48.6646C138.497 48.8935 138.531 49.0504 138.599 49.1351C138.675 49.2115 138.794 49.2496 138.955 49.2496H139.159V50C139.125 50.0085 139.074 50.0127 139.006 50.0127C138.947 50.0212 138.883 50.0254 138.815 50.0254C138.552 50.0254 138.332 49.9788 138.154 49.8855C137.984 49.7923 137.857 49.6396 137.772 49.4277C137.696 49.2157 137.658 48.9232 137.658 48.5501L137.76 48.5628C137.683 48.8596 137.526 49.1309 137.289 49.3768C137.06 49.6142 136.772 49.805 136.424 49.9491C136.076 50.0848 135.703 50.1526 135.305 50.1526ZM135.381 49.4022C135.848 49.4022 136.25 49.309 136.589 49.1224C136.929 48.9359 137.191 48.6858 137.378 48.372C137.565 48.0498 137.658 47.6895 137.658 47.291V46.6169L135.343 47.0493C134.86 47.1426 134.504 47.2867 134.275 47.4817C134.054 47.6768 133.944 47.9354 133.944 48.2576C133.944 48.6222 134.071 48.9062 134.326 49.1097C134.58 49.3047 134.932 49.4022 135.381 49.4022Z" fill="white"/>
<path d="M131.182 50C130.631 50 130.224 49.8729 129.961 49.6185C129.698 49.3556 129.567 48.9571 129.567 48.4229V41.6821H130.406V48.3975C130.406 48.7112 130.474 48.9317 130.61 49.0589C130.754 49.1861 130.97 49.2496 131.258 49.2496H132.149V50H131.182ZM128.511 44.0096V43.2592H132.149V44.0096H128.511Z" fill="white"/>
<path d="M124.283 50.2035C123.613 50.2035 123.02 50.0721 122.503 49.8092C121.994 49.5464 121.591 49.186 121.294 48.7282C120.998 48.2618 120.832 47.7361 120.798 47.1511L121.701 47.0875C121.735 47.5368 121.862 47.9354 122.083 48.283C122.303 48.6222 122.6 48.885 122.973 49.0716C123.346 49.2581 123.791 49.3514 124.309 49.3514C124.758 49.3514 125.148 49.2878 125.479 49.1606C125.809 49.0334 126.064 48.8469 126.242 48.601C126.42 48.3551 126.509 48.0583 126.509 47.7107C126.509 47.4139 126.441 47.1511 126.305 46.9221C126.17 46.6932 125.907 46.4812 125.517 46.2862C125.127 46.0912 124.559 45.9046 123.813 45.7266C123.126 45.557 122.575 45.3705 122.159 45.167C121.752 44.9635 121.455 44.7133 121.269 44.4166C121.082 44.1113 120.989 43.7298 120.989 43.2719C120.989 42.7886 121.108 42.3604 121.345 41.9873C121.583 41.6058 121.922 41.309 122.363 41.097C122.812 40.8766 123.346 40.7664 123.965 40.7664C124.627 40.7664 125.19 40.8978 125.657 41.1606C126.123 41.415 126.488 41.7584 126.751 42.1908C127.013 42.6148 127.166 43.0854 127.208 43.6026L126.305 43.6662C126.272 43.2846 126.161 42.937 125.975 42.6233C125.788 42.3095 125.525 42.0636 125.186 41.8856C124.847 41.7075 124.432 41.6185 123.94 41.6185C123.304 41.6185 122.804 41.7711 122.439 42.0764C122.074 42.3731 121.892 42.7632 121.892 43.2465C121.892 43.5517 121.96 43.8061 122.096 44.0096C122.231 44.2046 122.473 44.3784 122.821 44.531C123.168 44.6752 123.664 44.8278 124.309 44.9889C125.106 45.1754 125.729 45.4001 126.178 45.663C126.636 45.9174 126.958 46.2099 127.145 46.5406C127.331 46.8712 127.425 47.2486 127.425 47.6725C127.425 48.1897 127.285 48.6391 127.005 49.0207C126.734 49.4022 126.361 49.6948 125.886 49.8983C125.419 50.1017 124.885 50.2035 124.283 50.2035Z" fill="white"/>
<path d="M111.47 51.9077V51.1574H112.157C112.437 51.1574 112.641 51.1107 112.768 51.0175C112.903 50.9327 113.014 50.78 113.098 50.5596L113.353 49.8728H113.048L110.517 43.2592H111.432L113.607 49.1224L115.68 43.2592H116.596L113.823 50.8394C113.688 51.2125 113.497 51.4838 113.251 51.6534C113.014 51.823 112.67 51.9077 112.221 51.9077H111.47Z" fill="white"/>
<path d="M103.296 50V40.9698H106.285C107.337 40.9698 108.125 41.1691 108.651 41.5676C109.177 41.9577 109.439 42.5681 109.439 43.3991C109.439 43.7891 109.35 44.1368 109.172 44.442C109.003 44.7472 108.757 44.9847 108.435 45.1542C108.112 45.3238 107.735 45.4086 107.303 45.4086L107.29 45.3323C108.079 45.3323 108.698 45.5358 109.147 45.9428C109.596 46.3498 109.821 46.884 109.821 47.5453C109.821 48.3593 109.562 48.974 109.045 49.3895C108.528 49.7965 107.778 50 106.794 50H103.296ZM104.161 49.1606H106.794C107.489 49.1606 108.015 49.0207 108.371 48.7409C108.736 48.4611 108.918 48.0498 108.918 47.5072C108.918 46.9899 108.731 46.5872 108.358 46.2989C107.985 46.0021 107.464 45.8538 106.794 45.8538H104.161V49.1606ZM104.161 45.0143H106.285C107.006 45.0143 107.561 44.8787 107.951 44.6073C108.341 44.3275 108.536 43.9333 108.536 43.4245C108.536 42.8819 108.35 42.4791 107.977 42.2163C107.604 41.9449 107.04 41.8093 106.285 41.8093H104.161V45.0143Z" fill="white"/>
<path d="M94.8904 50.1526C94.3054 50.1526 93.8009 50.0085 93.3769 49.7202C92.953 49.4319 92.6265 49.0249 92.3976 48.4992C92.1687 47.9735 92.0542 47.3503 92.0542 46.6296C92.0542 45.9089 92.1687 45.2857 92.3976 44.76C92.6265 44.2343 92.953 43.8273 93.3769 43.539C93.8009 43.2507 94.3054 43.1066 94.8904 43.1066C95.3822 43.1066 95.8189 43.2295 96.2004 43.4754C96.5905 43.7128 96.8745 44.035 97.0526 44.442V40.9698H97.892V50H97.1543L97.1162 48.7409C96.9296 49.1818 96.6329 49.5294 96.2259 49.7838C95.8274 50.0297 95.3822 50.1526 94.8904 50.1526ZM95.0303 49.3514C95.4543 49.3514 95.8146 49.2411 96.1114 49.0207C96.4166 48.7917 96.6498 48.4738 96.8109 48.0668C96.972 47.6513 97.0526 47.1722 97.0526 46.6296C97.0526 46.0869 96.972 45.6121 96.8109 45.2051C96.6498 44.7981 96.4166 44.4802 96.1114 44.2512C95.8146 44.0223 95.4543 43.9078 95.0303 43.9078C94.3944 43.9078 93.8857 44.1537 93.5041 44.6455C93.1226 45.1288 92.9318 45.7902 92.9318 46.6296C92.9318 47.4605 93.1226 48.1219 93.5041 48.6137C93.8857 49.1055 94.3944 49.3514 95.0303 49.3514Z" fill="white"/>
<path d="M88.1384 50.1526C87.494 50.1526 86.9471 50.0042 86.4977 49.7075C86.0483 49.4022 85.7006 48.9868 85.4548 48.4611C85.2173 47.9269 85.0986 47.3164 85.0986 46.6296C85.0986 45.9428 85.2173 45.3365 85.4548 44.8108C85.6922 44.2767 86.0313 43.8612 86.4722 43.5644C86.9216 43.2592 87.46 43.1066 88.0875 43.1066C88.6895 43.1066 89.211 43.2507 89.6519 43.539C90.0928 43.8273 90.4277 44.2343 90.6566 44.76C90.894 45.2857 91.0127 45.9004 91.0127 46.6042V46.8712H85.9762C86.0101 47.6683 86.2179 48.283 86.5994 48.7154C86.981 49.1394 87.494 49.3514 88.1384 49.3514C88.6301 49.3514 89.0329 49.2327 89.3466 48.9952C89.6603 48.7578 89.8766 48.4441 89.9953 48.0541L90.8983 48.1177C90.7287 48.7112 90.4023 49.1987 89.9189 49.5803C89.4356 49.9618 88.8421 50.1526 88.1384 50.1526ZM85.9762 46.1209H90.097C90.0546 45.4001 89.8554 44.8532 89.4992 44.4802C89.1431 44.0986 88.6725 43.9078 88.0875 43.9078C87.5024 43.9078 87.0234 44.0986 86.6503 44.4802C86.2772 44.8617 86.0525 45.4086 85.9762 46.1209Z" fill="white"/>
<path d="M81.396 50V43.2592H82.121L82.1718 45.1033L82.0574 45.0397C82.1676 44.4377 82.3668 43.9926 82.6551 43.7043C82.9434 43.4075 83.3419 43.2592 83.8507 43.2592H84.4357V44.0731H83.8252C83.4861 44.0731 83.1978 44.1495 82.9604 44.3021C82.723 44.4462 82.5407 44.654 82.4135 44.9253C82.2948 45.1966 82.2354 45.5188 82.2354 45.8919V50H81.396Z" fill="white"/>
<path d="M77.0221 50.1526C76.3777 50.1526 75.8308 50.0042 75.3815 49.7075C74.9321 49.4022 74.5844 48.9868 74.3385 48.4611C74.1011 47.9269 73.9824 47.3164 73.9824 46.6296C73.9824 45.9428 74.1011 45.3365 74.3385 44.8108C74.576 44.2767 74.9151 43.8612 75.356 43.5644C75.8054 43.2592 76.3438 43.1066 76.9713 43.1066C77.5733 43.1066 78.0947 43.2507 78.5357 43.539C78.9766 43.8273 79.3115 44.2343 79.5404 44.76C79.7778 45.2857 79.8965 45.9004 79.8965 46.6042V46.8712H74.86C74.8939 47.6683 75.1017 48.283 75.4832 48.7154C75.8648 49.1394 76.3777 49.3514 77.0221 49.3514C77.5139 49.3514 77.9167 49.2327 78.2304 48.9952C78.5441 48.7578 78.7603 48.4441 78.8791 48.0541L79.7821 48.1177C79.6125 48.7112 79.286 49.1987 78.8027 49.5803C78.3194 49.9618 77.7259 50.1526 77.0221 50.1526ZM74.86 46.1209H78.9808C78.9384 45.4001 78.7391 44.8532 78.383 44.4802C78.0269 44.0986 77.5563 43.9078 76.9713 43.9078C76.3862 43.9078 75.9072 44.0986 75.5341 44.4802C75.161 44.8617 74.9363 45.4086 74.86 46.1209Z" fill="white"/>
<path d="M65.9155 50L63.7661 43.2592H64.6818L66.4243 49.1224L68.1413 43.2592H69.0316L70.7486 49.1224L72.5037 43.2592H73.4195L71.27 50H70.2271L68.5864 44.531L66.9585 50H65.9155Z" fill="white"/>
<path d="M60.1793 50.1526C59.5688 50.1526 59.0347 50.0085 58.5768 49.7202C58.1274 49.4319 57.7798 49.0249 57.5339 48.4992C57.288 47.965 57.165 47.3418 57.165 46.6296C57.165 45.9089 57.288 45.2857 57.5339 44.76C57.7798 44.2343 58.1274 43.8273 58.5768 43.539C59.0347 43.2507 59.5688 43.1066 60.1793 43.1066C60.7898 43.1066 61.3198 43.2507 61.7691 43.539C62.2185 43.8273 62.5662 44.2343 62.8121 44.76C63.058 45.2857 63.1809 45.9089 63.1809 46.6296C63.1809 47.3418 63.058 47.965 62.8121 48.4992C62.5662 49.0249 62.2185 49.4319 61.7691 49.7202C61.3198 50.0085 60.7898 50.1526 60.1793 50.1526ZM60.1793 49.3514C60.8407 49.3514 61.3579 49.1097 61.731 48.6264C62.1125 48.1346 62.3033 47.469 62.3033 46.6296C62.3033 45.7902 62.1125 45.1288 61.731 44.6455C61.3579 44.1537 60.8407 43.9078 60.1793 43.9078C59.518 43.9078 58.9965 44.1537 58.615 44.6455C58.2334 45.1288 58.0426 45.7902 58.0426 46.6296C58.0426 47.469 58.2334 48.1346 58.615 48.6264C58.9965 49.1097 59.518 49.3514 60.1793 49.3514Z" fill="white"/>
<path d="M50 50V40.9698H53.1669C54.159 40.9698 54.9305 41.2115 55.4817 41.6948C56.0413 42.1696 56.3211 42.8268 56.3211 43.6662C56.3211 44.2173 56.1939 44.6964 55.9395 45.1034C55.6937 45.5104 55.3333 45.8241 54.8585 46.0445C54.3921 46.2565 53.8283 46.3625 53.1669 46.3625H50.8649V50H50ZM50.8649 45.5231H53.1669C53.9046 45.5231 54.46 45.3662 54.833 45.0525C55.2146 44.7388 55.4054 44.2767 55.4054 43.6662C55.4054 43.0557 55.2146 42.5936 54.833 42.2799C54.46 41.9661 53.9046 41.8093 53.1669 41.8093H50.8649V45.5231Z" fill="white"/>
</svg>
