<svg width="114" height="34" viewBox="0 0 114 34" fill="none" xmlns="http://www.w3.org/2000/svg">
<path d="M77.8174 31.6683V26.2358H78.5003V31.6683H77.8174Z" fill="#191919"/>
<path d="M76.0117 31.6683V26.2358H76.6946V31.6683H76.0117Z" fill="#191919"/>
<path d="M73.2373 31.7296C72.8178 31.7296 72.4495 31.6375 72.1324 31.4534C71.8204 31.2641 71.5774 31.0058 71.4035 30.6784C71.2296 30.3459 71.1426 29.9674 71.1426 29.5428C71.1426 29.1131 71.2296 28.7346 71.4035 28.4072C71.5774 28.0798 71.8204 27.8241 72.1324 27.6399C72.4444 27.4507 72.8051 27.356 73.2143 27.356C73.6388 27.356 74.0046 27.4558 74.3115 27.6553C74.6235 27.8548 74.8537 28.1259 75.0021 28.4686C75.1504 28.8113 75.199 29.1975 75.1478 29.6272H71.8332C71.8485 30.0978 71.9815 30.4687 72.2321 30.7398C72.4879 31.0058 72.8229 31.1388 73.2373 31.1388C73.5647 31.1388 73.8307 31.062 74.0353 30.9086C74.245 30.7551 74.3754 30.5556 74.4266 30.3101H75.1402C75.0686 30.7295 74.8665 31.0723 74.534 31.3383C74.2015 31.5991 73.7693 31.7296 73.2373 31.7296ZM71.8715 29.0824H74.4496C74.4445 28.7346 74.3268 28.4584 74.0966 28.2537C73.8716 28.044 73.5775 27.9392 73.2143 27.9392C72.8562 27.9392 72.5595 28.0415 72.3242 28.2461C72.094 28.4456 71.9431 28.7244 71.8715 29.0824Z" fill="#191919"/>
<path d="M65.7628 31.6683L64.2666 27.4175H65.0032L66.1234 30.7782L67.236 27.4175H67.9036L69.0238 30.7782L70.1364 27.4175H70.8499L69.3537 31.6683H68.6709L67.5583 28.3843L66.4457 31.6683H65.7628Z" fill="#191919"/>
<path d="M61.593 33.126C61.0764 33.126 60.6544 33.0033 60.327 32.7577C59.9996 32.5173 59.8027 32.213 59.7362 31.8447H60.4191C60.5572 32.3102 60.9536 32.5429 61.6084 32.5429C62.0074 32.5429 62.3271 32.438 62.5675 32.2283C62.8079 32.0186 62.9281 31.7117 62.9281 31.3076V30.7321C62.7951 30.9521 62.5956 31.1285 62.3296 31.2615C62.0687 31.3945 61.7721 31.461 61.4396 31.461C61.0713 31.461 60.7413 31.3741 60.4498 31.2001C60.1582 31.0262 59.928 30.7858 59.7592 30.4789C59.5955 30.172 59.5137 29.8165 59.5137 29.4124C59.5137 29.0031 59.5981 28.6451 59.7669 28.3382C59.9357 28.0312 60.1633 27.7908 60.4498 27.6169C60.7413 27.443 61.0713 27.356 61.4396 27.356C61.7618 27.356 62.056 27.4225 62.322 27.5555C62.5879 27.6834 62.79 27.8573 62.9281 28.0773V27.4174H63.6187V31.2769C63.6187 31.6759 63.5292 32.0109 63.3501 32.282C63.1762 32.5582 62.9358 32.768 62.6289 32.9112C62.3271 33.0544 61.9818 33.126 61.593 33.126ZM61.57 30.8702C61.836 30.8702 62.0687 30.8063 62.2682 30.6784C62.4728 30.5505 62.634 30.3766 62.7516 30.1566C62.8693 29.9367 62.9281 29.6886 62.9281 29.4124C62.9281 29.131 62.8693 28.8804 62.7516 28.6604C62.634 28.4405 62.4728 28.2665 62.2682 28.1387C62.0687 28.0108 61.836 27.9468 61.57 27.9468C61.3091 27.9468 61.0764 28.0108 60.8718 28.1387C60.6672 28.2665 60.506 28.4405 60.3884 28.6604C60.2707 28.8804 60.2119 29.131 60.2119 29.4124C60.2119 29.6937 60.2707 29.9443 60.3884 30.1643C60.506 30.3843 60.6672 30.5582 60.8718 30.6861C61.0764 30.8088 61.3091 30.8702 61.57 30.8702Z" fill="#191919"/>
<path d="M56.5741 31.7296C56.1393 31.7296 55.7863 31.6222 55.5152 31.4073C55.2492 31.1925 55.1162 30.9035 55.1162 30.5403C55.1162 30.1566 55.2594 29.842 55.5459 29.5965C55.8323 29.351 56.2825 29.195 56.8963 29.1285L58.0166 29.0134V28.8676C58.0166 28.576 57.9168 28.3484 57.7173 28.1847C57.5178 28.021 57.2595 27.9392 56.9424 27.9392C56.6457 27.9392 56.3899 28.0184 56.1751 28.177C55.9602 28.3356 55.8349 28.5607 55.7991 28.8522H55.1316C55.1674 28.5555 55.2671 28.2947 55.4308 28.0696C55.5996 27.8445 55.8144 27.6706 56.0753 27.5478C56.3362 27.42 56.6252 27.356 56.9424 27.356C57.2851 27.356 57.5869 27.42 57.8478 27.5478C58.1086 27.6757 58.3133 27.8573 58.4616 28.0926C58.6151 28.3279 58.6918 28.6093 58.6918 28.9366V31.6682H58.0166V30.9469C57.9194 31.172 57.7378 31.3587 57.4718 31.5071C57.2058 31.6554 56.9066 31.7296 56.5741 31.7296ZM58.0166 29.5581L56.9117 29.6809C56.5383 29.7167 56.2595 29.8088 56.0753 29.9571C55.8963 30.1055 55.8068 30.2922 55.8068 30.5173C55.8068 30.727 55.8835 30.8881 56.037 31.0006C56.1955 31.1132 56.4104 31.1695 56.6815 31.1695C56.9321 31.1695 57.1572 31.1106 57.3567 30.993C57.5562 30.8753 57.7148 30.704 57.8324 30.4789C57.9552 30.2487 58.0166 29.9725 58.0166 29.6502V29.5581Z" fill="#191919"/>
<path d="M54.0902 31.7297C53.7373 31.7297 53.4483 31.6223 53.2232 31.4074C52.9981 31.1926 52.8856 30.8754 52.8856 30.456V27.9776H52.2334V27.4175H52.8856V26.5275H53.5685V27.4175H54.5506V27.9776H53.5685V30.4023C53.5685 30.6427 53.6222 30.8243 53.7296 30.9471C53.8421 31.0698 53.9905 31.1312 54.1747 31.1312C54.3281 31.1312 54.479 31.1005 54.6273 31.0391V31.6299C54.5455 31.6606 54.4611 31.6837 54.3741 31.699C54.2872 31.7195 54.1925 31.7297 54.0902 31.7297Z" fill="#191919"/>
<path d="M49.9782 31.7296C49.3797 31.7296 48.8887 31.5685 48.505 31.2462C48.1265 30.9189 47.9142 30.4559 47.8682 29.8575H48.551C48.592 30.2667 48.7403 30.5813 48.9961 30.8012C49.2518 31.0161 49.5792 31.1235 49.9782 31.1235C50.188 31.1235 50.3798 31.0902 50.5537 31.0237C50.7276 30.9572 50.8657 30.8575 50.968 30.7245C51.0754 30.5864 51.1292 30.4099 51.1292 30.1951C51.1292 29.9956 51.0729 29.837 50.9603 29.7193C50.8529 29.5966 50.7071 29.4968 50.523 29.4201C50.3388 29.3434 50.1368 29.2769 49.9168 29.2206C49.702 29.1592 49.4846 29.0953 49.2646 29.0288C49.0498 28.9572 48.8503 28.8676 48.6662 28.7602C48.482 28.6528 48.3337 28.5121 48.2211 28.3382C48.1137 28.1643 48.06 27.9418 48.06 27.6707C48.06 27.374 48.1393 27.1208 48.2978 26.9111C48.4564 26.6962 48.6687 26.53 48.9347 26.4123C49.2058 26.2947 49.505 26.2358 49.8324 26.2358C50.3798 26.2358 50.8171 26.3688 51.1445 26.6348C51.4719 26.9008 51.6688 27.2742 51.7353 27.7551H51.0524C51.0013 27.4635 50.8657 27.2384 50.6458 27.0799C50.4258 26.9213 50.1496 26.842 49.8171 26.842C49.4999 26.842 49.2442 26.9162 49.0498 27.0645C48.8554 27.2077 48.7582 27.3996 48.7582 27.64C48.7582 27.819 48.8119 27.9622 48.9194 28.0697C49.0319 28.172 49.1802 28.2589 49.3644 28.3305C49.5485 28.397 49.748 28.4584 49.9629 28.5147C50.1828 28.5658 50.4002 28.6272 50.6151 28.6988C50.835 28.7705 51.0371 28.8651 51.2212 28.9827C51.4054 29.0953 51.5512 29.2462 51.6586 29.4354C51.7711 29.6196 51.8274 29.8575 51.8274 30.149C51.8274 30.502 51.743 30.7961 51.5742 31.0314C51.4054 31.2667 51.1803 31.4432 50.899 31.5608C50.6227 31.6734 50.3158 31.7296 49.9782 31.7296Z" fill="#191919"/>
<path d="M43.1089 33.0647L43.6691 31.6912L42.0117 27.4174H42.756L44.022 30.8012L45.2881 27.4174H46.0093L43.8225 33.0647H43.1089Z" fill="#191919"/>
<path d="M37.8506 31.6683V26.2972H39.9299C40.2266 26.2972 40.4901 26.3535 40.7202 26.466C40.9504 26.5735 41.1295 26.7269 41.2574 26.9264C41.3904 27.1259 41.4568 27.3561 41.4568 27.617C41.4568 27.8062 41.4159 27.9802 41.3341 28.1387C41.2574 28.2973 41.155 28.4329 41.0272 28.5454C40.8993 28.6528 40.7637 28.7296 40.6205 28.7756C40.8149 28.8114 40.9939 28.8932 41.1576 29.0211C41.3213 29.149 41.4517 29.3076 41.5489 29.4968C41.6512 29.6861 41.7024 29.8933 41.7024 30.1183C41.7024 30.4253 41.6257 30.6964 41.4722 30.9317C41.3187 31.1619 41.109 31.3435 40.843 31.4765C40.5821 31.6043 40.2803 31.6683 39.9376 31.6683H37.8506ZM38.5565 31.0621H39.8839C40.2062 31.0621 40.4721 30.97 40.6819 30.7859C40.8967 30.6017 41.0041 30.369 41.0041 30.0877C41.0041 29.8012 40.8967 29.5685 40.6819 29.3894C40.4721 29.2053 40.2062 29.1132 39.8839 29.1132H38.5565V31.0621ZM38.5565 28.5147H39.8379C40.1039 28.5147 40.3264 28.4405 40.5054 28.2922C40.6895 28.1387 40.7816 27.9444 40.7816 27.7091C40.7816 27.4686 40.6895 27.2743 40.5054 27.1259C40.3264 26.9776 40.1039 26.9034 39.8379 26.9034H38.5565V28.5147Z" fill="#191919"/>
<path d="M32.7811 31.7296C32.377 31.7296 32.0215 31.6401 31.7146 31.4611C31.4076 31.2769 31.1672 31.0212 30.9933 30.6938C30.8194 30.3613 30.7324 29.9777 30.7324 29.5429C30.7324 29.1029 30.8194 28.7193 30.9933 28.3919C31.1672 28.0645 31.4076 27.8113 31.7146 27.6323C32.0215 27.4482 32.377 27.3561 32.7811 27.3561C33.0982 27.3561 33.3975 27.4277 33.6788 27.5709C33.9602 27.7142 34.1699 27.8957 34.308 28.1157V26.2358H34.9986V31.6683H34.308V30.97C34.1699 31.19 33.9602 31.3716 33.6788 31.5148C33.3975 31.658 33.0982 31.7296 32.7811 31.7296ZM32.8655 31.1312C33.1468 31.1312 33.3949 31.0647 33.6098 30.9317C33.8297 30.7935 34.0011 30.6068 34.1239 30.3715C34.2466 30.1311 34.308 29.8549 34.308 29.5429C34.308 29.2308 34.2466 28.9546 34.1239 28.7142C34.0011 28.4738 33.8297 28.2871 33.6098 28.1541C33.3949 28.016 33.1468 27.9469 32.8655 27.9469C32.5893 27.9469 32.3412 28.016 32.1212 28.1541C31.9064 28.2871 31.7376 28.4738 31.6148 28.7142C31.492 28.9546 31.4307 29.2308 31.4307 29.5429C31.4307 29.8549 31.492 30.1311 31.6148 30.3715C31.7376 30.6068 31.9064 30.7935 32.1212 30.9317C32.3412 31.0647 32.5893 31.1312 32.8655 31.1312Z" fill="#191919"/>
<path d="M28.2187 31.7296C27.7993 31.7296 27.431 31.6375 27.1138 31.4534C26.8018 31.2641 26.5588 31.0058 26.3849 30.6784C26.211 30.3459 26.124 29.9674 26.124 29.5428C26.124 29.1131 26.211 28.7346 26.3849 28.4072C26.5588 28.0798 26.8018 27.8241 27.1138 27.6399C27.4259 27.4507 27.7865 27.356 28.1957 27.356C28.6203 27.356 28.986 27.4558 29.2929 27.6553C29.605 27.8548 29.8352 28.1259 29.9835 28.4686C30.1318 28.8113 30.1804 29.1975 30.1293 29.6272H26.8146C26.8299 30.0978 26.9629 30.4687 27.2136 30.7398C27.4693 31.0058 27.8044 31.1388 28.2187 31.1388C28.5461 31.1388 28.8121 31.062 29.0167 30.9086C29.2264 30.7551 29.3569 30.5556 29.408 30.3101H30.1216C30.05 30.7295 29.848 31.0723 29.5155 31.3383C29.183 31.5991 28.7507 31.7296 28.2187 31.7296ZM26.853 29.0824H29.431C29.4259 28.7346 29.3083 28.4584 29.0781 28.2537C28.853 28.044 28.5589 27.9392 28.1957 27.9392C27.8377 27.9392 27.5409 28.0415 27.3056 28.2461C27.0755 28.4456 26.9246 28.7244 26.853 29.0824Z" fill="#191919"/>
<path d="M23.4932 31.6683V27.4175H24.1837V28.2001C24.2963 27.9546 24.4727 27.7525 24.7131 27.5939C24.9587 27.4354 25.217 27.3561 25.4881 27.3561C25.5802 27.3561 25.6723 27.3638 25.7643 27.3791C25.8564 27.3944 25.9306 27.4175 25.9869 27.4482V28.108C25.8129 28.0364 25.6314 28.0006 25.4421 28.0006C25.084 28.0006 24.7848 28.1745 24.5443 28.5224C24.3039 28.8702 24.1837 29.3792 24.1837 30.0493V31.6683H23.4932Z" fill="#191919"/>
<path d="M20.7187 31.7296C20.2993 31.7296 19.931 31.6376 19.6138 31.4534C19.3018 31.2641 19.0588 31.0058 18.8849 30.6784C18.711 30.346 18.624 29.9674 18.624 29.5429C18.624 29.1132 18.711 28.7346 18.8849 28.4073C19.0588 28.0799 19.3018 27.8241 19.6138 27.64C19.9259 27.4507 20.2865 27.3561 20.6957 27.3561C21.1203 27.3561 21.486 27.4558 21.7929 27.6553C22.105 27.8548 22.3352 28.1259 22.4835 28.4687C22.6318 28.8114 22.6804 29.1976 22.6293 29.6273H19.3146C19.3299 30.0979 19.4629 30.4687 19.7136 30.7398C19.9693 31.0058 20.3044 31.1388 20.7187 31.1388C21.0461 31.1388 21.3121 31.0621 21.5167 30.9086C21.7264 30.7552 21.8569 30.5557 21.908 30.3101H22.6216C22.55 30.7296 22.348 31.0723 22.0155 31.3383C21.683 31.5992 21.2507 31.7296 20.7187 31.7296ZM19.353 29.0825H21.931C21.9259 28.7346 21.8083 28.4584 21.5781 28.2538C21.353 28.0441 21.0589 27.9392 20.6957 27.9392C20.3377 27.9392 20.0409 28.0415 19.8056 28.2461C19.5755 28.4456 19.4246 28.7244 19.353 29.0825Z" fill="#191919"/>
<path d="M13.2443 31.6682L11.748 27.4174H12.4846L13.6049 30.7782L14.7175 27.4174H15.385L16.5053 30.7782L17.6178 27.4174H18.3314L16.8352 31.6682H16.1523L15.0397 28.3842L13.9271 31.6682H13.2443Z" fill="#191919"/>
<path d="M9.31457 31.7296C8.90024 31.7296 8.53194 31.6375 8.20968 31.4534C7.88742 31.2641 7.63421 31.0058 7.45006 30.6784C7.26591 30.3459 7.17383 29.9674 7.17383 29.5428C7.17383 29.1131 7.26591 28.7346 7.45006 28.4072C7.63421 28.0798 7.88742 27.8241 8.20968 27.6399C8.53194 27.4507 8.90024 27.356 9.31457 27.356C9.72891 27.356 10.0972 27.4507 10.4195 27.6399C10.7417 27.8241 10.9949 28.0798 11.1791 28.4072C11.3632 28.7346 11.4553 29.1131 11.4553 29.5428C11.4553 29.9674 11.3632 30.3459 11.1791 30.6784C10.9949 31.0058 10.7417 31.2641 10.4195 31.4534C10.0972 31.6375 9.72891 31.7296 9.31457 31.7296ZM9.31457 31.1311C9.59591 31.1311 9.84401 31.0646 10.0588 30.9316C10.2737 30.7935 10.4425 30.6068 10.5653 30.3715C10.6931 30.1311 10.7571 29.8548 10.7571 29.5428C10.7571 29.2308 10.6931 28.9545 10.5653 28.7141C10.4425 28.4737 10.2737 28.287 10.0588 28.154C9.84401 28.0159 9.59591 27.9468 9.31457 27.9468C9.03323 27.9468 8.78259 28.0159 8.56263 28.154C8.34779 28.287 8.17898 28.4737 8.05622 28.7141C7.93345 28.9545 7.87207 29.2308 7.87207 29.5428C7.87207 29.8548 7.93345 30.1311 8.05622 30.3715C8.17898 30.6068 8.34779 30.7935 8.56263 30.9316C8.78259 31.0646 9.03323 31.1311 9.31457 31.1311Z" fill="#191919"/>
<path d="M3 31.6683V26.2972H5.08704C5.42976 26.2972 5.72644 26.3612 5.97709 26.4891C6.23286 26.6169 6.42979 26.7985 6.5679 27.0338C6.71113 27.264 6.78274 27.5351 6.78274 27.8472C6.78274 28.1592 6.71113 28.4329 6.5679 28.6682C6.42979 28.8984 6.23286 29.0774 5.97709 29.2053C5.72644 29.3332 5.42976 29.3971 5.08704 29.3971H3.69824V31.6683H3ZM3.69824 28.7909H5.01798C5.34024 28.7909 5.59857 28.704 5.79295 28.5301C5.98733 28.3561 6.08451 28.1285 6.08451 27.8472C6.08451 27.5607 5.98733 27.3331 5.79295 27.1643C5.59857 26.9904 5.34024 26.9034 5.01798 26.9034H3.69824V28.7909Z" fill="#191919"/>
<path d="M108.04 13.2952C107.031 13.2952 106.119 13.065 105.305 12.6047C104.508 12.1267 103.871 11.4806 103.393 10.6662C102.915 9.85184 102.676 8.94012 102.676 7.93102C102.676 6.92193 102.915 6.0102 103.393 5.19585C103.871 4.38149 104.508 3.74417 105.305 3.28388C106.119 2.80589 107.031 2.56689 108.04 2.56689C109.067 2.56689 109.978 2.80589 110.775 3.28388C111.589 3.74417 112.236 4.38149 112.714 5.19585C113.192 6.0102 113.431 6.92193 113.431 7.93102C113.431 8.94012 113.192 9.85184 112.714 10.6662C112.236 11.4806 111.589 12.1267 110.775 12.6047C109.978 13.065 109.067 13.2952 108.04 13.2952ZM108.066 11.8081C109.164 11.8081 110.076 11.4451 110.802 10.7193C111.527 9.99347 111.89 9.06404 111.89 7.93102C111.89 7.18748 111.722 6.5236 111.386 5.93939C111.067 5.35518 110.616 4.89489 110.032 4.55853C109.465 4.22216 108.81 4.05398 108.066 4.05398C107.341 4.05398 106.686 4.22216 106.101 4.55853C105.517 4.89489 105.057 5.35518 104.721 5.93939C104.402 6.5236 104.243 7.18748 104.243 7.93102C104.243 9.06404 104.605 9.99347 105.331 10.7193C106.057 11.4451 106.969 11.8081 108.066 11.8081ZM106.234 10.4272V5.40829H108.332C108.845 5.40829 109.253 5.55877 109.554 5.85973C109.855 6.14298 110.005 6.53245 110.005 7.02815C110.005 7.57695 109.793 8.01069 109.368 8.32935L110.563 10.4272H108.943L108.013 8.64801H107.642V10.4272H106.234ZM107.642 7.45303H108.066C108.438 7.45303 108.624 7.3114 108.624 7.02815C108.624 6.7449 108.438 6.60327 108.066 6.60327H107.642V7.45303Z" fill="#191919"/>
<path d="M1.56675 21V2.41144H5.78901V17.4151H14.1804V21H1.56675ZM21.3644 21.2124C19.8242 21.2124 18.4787 20.8938 17.328 20.2565C16.195 19.6014 15.3098 18.7074 14.6725 17.5744C14.0529 16.4237 13.7431 15.1136 13.7431 13.6442C13.7431 12.1749 14.0529 10.8737 14.6725 9.74064C15.2921 8.58992 16.1596 7.6959 17.2749 7.05858C18.4079 6.40355 19.7091 6.07604 21.1785 6.07604C22.8249 6.07604 24.2235 6.45666 25.3742 7.21791C26.5249 7.97915 27.3659 9.00595 27.897 10.2983C28.4458 11.5729 28.6051 13.0069 28.3749 14.6002H17.7795C17.9388 15.627 18.3283 16.4237 18.9479 16.9902C19.5675 17.539 20.373 17.8134 21.3644 17.8134C22.1079 17.8134 22.7187 17.6629 23.1967 17.362C23.6924 17.0433 24.0022 16.6361 24.1261 16.1404H28.3484C28.2068 17.1318 27.8173 18.017 27.18 18.7959C26.5603 19.5572 25.7548 20.1502 24.7635 20.5751C23.7721 21 22.639 21.2124 21.3644 21.2124ZM17.9919 11.6526H24.0996C24.0642 10.8914 23.7809 10.2894 23.2498 9.84686C22.7364 9.40428 22.046 9.18298 21.1785 9.18298C20.3819 9.18298 19.7091 9.39542 19.1603 9.82031C18.6115 10.2452 18.222 10.856 17.9919 11.6526ZM34.5173 21.2124C32.9594 21.2124 31.7113 20.823 30.773 20.044C29.8347 19.2474 29.3656 18.2029 29.3656 16.9105C29.3656 15.5297 29.8613 14.432 30.8527 13.6177C31.8618 12.7856 33.4639 12.2545 35.6591 12.0244L38.6599 11.7057V11.5464C38.6599 10.7851 38.412 10.2009 37.9163 9.79375C37.4383 9.38657 36.801 9.18298 36.0043 9.18298C35.2962 9.18298 34.6854 9.38657 34.172 9.79375C33.6586 10.1832 33.3665 10.7409 33.2957 11.4667H29.3656C29.4718 10.4045 29.8259 9.47509 30.4278 8.67844C31.0474 7.86408 31.844 7.22676 32.8177 6.76647C33.7914 6.30618 34.8713 6.07604 36.0575 6.07604C37.3675 6.07604 38.5271 6.30618 39.5362 6.76647C40.5453 7.20906 41.3331 7.87293 41.8996 8.7581C42.4838 9.62557 42.7759 10.7143 42.7759 12.0244V21H38.6599V19.3536C38.3235 19.9378 37.7747 20.3981 37.0134 20.7344C36.2699 21.0531 35.4378 21.2124 34.5173 21.2124ZM38.6599 14.6533L35.7388 14.972C34.9598 15.0605 34.3845 15.2641 34.0127 15.5828C33.6586 15.8837 33.4816 16.2643 33.4816 16.7246C33.4816 17.1849 33.6586 17.5478 34.0127 17.8134C34.3668 18.0612 34.8448 18.1852 35.4467 18.1852C36.385 18.1852 37.1462 17.8665 37.7304 17.2292C38.3146 16.5742 38.6244 15.7155 38.6599 14.6533ZM50.8995 21.2124C49.5363 21.2124 48.3325 20.9026 47.288 20.283C46.2612 19.6457 45.4645 18.7605 44.898 17.6275C44.3315 16.4945 44.0483 15.1667 44.0483 13.6442C44.0483 12.1217 44.3315 10.794 44.898 9.66098C45.4645 8.52796 46.2612 7.65164 47.288 7.03202C48.3325 6.3947 49.5363 6.07604 50.8995 6.07604C51.8377 6.07604 52.7052 6.24422 53.5019 6.58059C54.3162 6.89925 54.9535 7.34183 55.4138 7.90834V2.199H59.5299V21H55.4138V19.3801C54.9535 19.9289 54.3162 20.3715 53.5019 20.7079C52.6875 21.0443 51.82 21.2124 50.8995 21.2124ZM51.8023 17.7072C52.8645 17.7072 53.732 17.3354 54.4047 16.5919C55.0775 15.8483 55.4138 14.8658 55.4138 13.6442C55.4138 12.4227 55.0775 11.4402 54.4047 10.6966C53.732 9.93538 52.8645 9.55476 51.8023 9.55476C50.7224 9.55476 49.8461 9.93538 49.1734 10.6966C48.5007 11.4402 48.1643 12.4227 48.1643 13.6442C48.1643 14.8658 48.5007 15.8483 49.1734 16.5919C49.8461 17.3354 50.7224 17.7072 51.8023 17.7072ZM68.5318 21.2124C66.9916 21.2124 65.6462 20.8938 64.4955 20.2565C63.3625 19.6014 62.4773 18.7074 61.84 17.5744C61.2203 16.4237 60.9105 15.1136 60.9105 13.6442C60.9105 12.1749 61.2203 10.8737 61.84 9.74064C62.4596 8.58992 63.327 7.6959 64.4424 7.05858C65.5754 6.40355 66.8766 6.07604 68.346 6.07604C69.9924 6.07604 71.3909 6.45666 72.5417 7.21791C73.6924 7.97915 74.5333 9.00595 75.0644 10.2983C75.6132 11.5729 75.7725 13.0069 75.5424 14.6002H64.9469C65.1062 15.627 65.4957 16.4237 66.1153 16.9902C66.7349 17.539 67.5405 17.8134 68.5318 17.8134C69.2754 17.8134 69.8862 17.6629 70.3641 17.362C70.8598 17.0433 71.1696 16.6361 71.2936 16.1404H75.5158C75.3742 17.1318 74.9847 18.017 74.3474 18.7959C73.7278 19.5572 72.9223 20.1502 71.9309 20.5751C70.9395 21 69.8065 21.2124 68.5318 21.2124ZM65.1593 11.6526H71.267C71.2316 10.8914 70.9484 10.2894 70.4173 9.84686C69.9039 9.40428 69.2134 9.18298 68.346 9.18298C67.5493 9.18298 66.8766 9.39542 66.3278 9.82031C65.779 10.2452 65.3895 10.856 65.1593 11.6526ZM77.0907 21V6.28848H81.2067V8.06767C81.5608 7.46576 82.1096 6.98776 82.8531 6.6337C83.5967 6.26192 84.3756 6.07604 85.19 6.07604C85.9158 6.07604 86.5089 6.16456 86.9692 6.34159V10.2717C86.3673 10.0416 85.7299 9.92653 85.0572 9.92653C84.3845 9.92653 83.756 10.1213 83.1718 10.5107C82.5876 10.8825 82.1096 11.4844 81.7378 12.3165C81.3837 13.1485 81.2067 14.2639 81.2067 15.6624V21H77.0907ZM93.2532 21.2124C91.3766 21.2124 89.8807 20.7433 88.7654 19.805C87.6501 18.8667 87.0481 17.6275 86.9596 16.0873H90.9163C90.9517 16.6538 91.1819 17.1141 91.6068 17.4682C92.0493 17.8045 92.6247 17.9727 93.3328 17.9727C93.8994 17.9727 94.3331 17.8488 94.634 17.6009C94.9527 17.3531 95.112 17.0433 95.112 16.6715C95.112 16.2466 94.9262 15.9191 94.5544 15.689C94.1826 15.4588 93.6958 15.273 93.0938 15.1313C92.5096 14.972 91.8812 14.8038 91.2084 14.6268C90.5534 14.432 89.9249 14.1753 89.323 13.8567C88.7388 13.538 88.2608 13.0954 87.8891 12.5289C87.5173 11.9447 87.3314 11.1923 87.3314 10.2717C87.3314 9.5105 87.5438 8.82006 87.9687 8.20045C88.4113 7.56312 89.0309 7.04973 89.8276 6.66025C90.6419 6.27078 91.6068 6.07604 92.7221 6.07604C94.5986 6.07604 96.0857 6.51862 97.1833 7.40379C98.2809 8.27126 98.8652 9.41313 98.936 10.8294H95.0058C94.935 10.2806 94.696 9.85571 94.2888 9.55476C93.8994 9.2538 93.3948 9.10332 92.7752 9.10332C92.3149 9.10332 91.9254 9.20069 91.6068 9.39543C91.3058 9.59016 91.1553 9.87342 91.1553 10.2452C91.1553 10.6524 91.3412 10.9533 91.713 11.1481C92.1025 11.3428 92.5982 11.5021 93.2001 11.6261C93.802 11.7323 94.4305 11.865 95.0855 12.0244C95.7582 12.166 96.3955 12.3962 96.9974 12.7148C97.5994 13.0158 98.0862 13.4672 98.458 14.0691C98.8475 14.6533 99.0422 15.4588 99.0422 16.4856C99.0422 17.9196 98.5199 19.0703 97.4754 19.9378C96.4309 20.7876 95.0235 21.2124 93.2532 21.2124Z" fill="#191919"/>
</svg>
